<svg width="120" height="120" viewBox="0 0 120 120" fill="none" xmlns="http://www.w3.org/2000/svg">
<path d="M51.1509 22.2564C54.2746 23.1838 57.4471 23.8183 60.6684 24.2575C61.4982 24.3552 62.3279 24.4528 63.1088 24.5504C63.1576 24.2575 63.2064 23.9159 63.2552 23.623C63.5969 21.5243 63.9874 19.3767 64.329 17.278C65.1099 12.5436 65.9397 7.76046 67.4527 3.22132C67.7456 2.39158 68.0384 1.56185 68.3313 0.732111C66.379 0.439264 64.3778 0.244034 62.4255 0.146418C61.9374 0.0976097 61.4494 0.0976105 61.0101 0.0976105C60.6684 2.83085 59.9851 5.51529 59.009 8.0533C57.6423 11.7139 55.8853 15.2281 53.7377 18.547C52.9568 19.7672 52.0782 20.9874 51.1509 22.2564Z" fill="white"/>
<path d="M62.1327 33.4334C62.2303 31.9204 62.3279 30.4073 62.5232 28.8943C60.3756 28.6991 58.2769 28.3574 56.1781 27.9669C53.4937 27.4789 50.8093 26.7956 48.2224 25.9658C47.7344 26.5515 47.1975 27.1372 46.6606 27.7229C43.1952 31.5299 39.2906 34.8977 34.9955 37.7285C33.7753 38.5583 32.5063 39.3392 31.1885 40.0713C31.9694 43.5855 32.2623 47.2949 31.9694 50.8579C31.8718 52.3221 31.6766 53.8352 31.3837 55.2994C32.1158 55.2018 32.7991 55.1042 33.5313 55.0065C43.4393 53.6399 53.2497 51.7364 62.9136 49.1984C62.1327 43.976 61.8399 38.7047 62.1327 33.4334Z" fill="white"/>
<path d="M27.0885 68.1847C26.7956 68.868 26.454 69.5025 26.1611 70.137C27.5278 70.6251 28.8944 71.162 30.2122 71.7965C34.7025 73.8952 38.9 76.6773 42.5118 80.045C42.6094 80.1426 42.7558 80.2402 42.8534 80.3379C49.2473 71.8941 55.3971 63.2063 60.9612 54.2256C50.858 56.7148 40.6571 58.5695 30.3098 59.7897C29.4313 62.6694 28.3575 65.4514 27.0885 68.1847Z" fill="white"/>
<path d="M67.5015 24.8432C70.4299 24.9409 73.4072 24.892 76.3357 24.648C77.6047 21.5731 78.7761 18.4982 79.8987 15.3257C81.0701 11.8603 82.1927 8.34616 82.9248 4.73437C82.4855 4.53914 81.9974 4.3439 81.5582 4.14867C78.7273 3.02609 75.7988 2.09874 72.7727 1.41543C71.1133 5.51529 70.1371 9.90801 69.3074 14.2519C68.9169 16.3507 68.5752 18.4982 68.2336 20.5969C67.9895 22.0612 67.7455 23.4278 67.5015 24.8432Z" fill="white"/>
<path d="M69.7953 29.2848C68.8191 29.2848 67.8918 29.2359 66.9156 29.1871C66.3787 34.2632 66.2811 39.3392 66.7692 44.3664C69.5513 39.388 72.0893 34.312 74.4321 29.1383C72.8702 29.2359 71.3083 29.2848 69.7953 29.2848Z" fill="white"/>
<path d="M81.314 24.0135C85.9995 23.1838 90.5875 21.866 95.029 20.0113C97.1765 19.0839 99.2753 18.0589 101.276 16.9364C98.7384 14.4472 95.9563 12.1532 92.9303 10.1521C91.0756 8.88305 89.1232 7.76047 87.0245 6.68669C85.7555 12.3484 83.8032 17.8637 81.6556 23.2814C81.5092 23.4766 81.4116 23.7695 81.314 24.0135Z" fill="white"/>
<path d="M82.5833 28.211C81.5095 28.4062 80.4357 28.5526 79.3619 28.6991C77.8977 32.1644 76.287 35.581 74.6276 38.9487C73.2121 41.7308 71.7479 44.464 70.2349 47.1485C78.337 44.7569 86.2927 41.9748 94.1019 38.7047C100.057 36.1667 105.865 33.3846 111.575 30.3097C111.234 29.724 110.892 29.1383 110.55 28.6015C108.793 25.7218 106.743 22.8909 104.352 20.2065C102.253 21.4267 100.057 22.5493 97.8113 23.5254C92.9306 25.673 87.8545 27.3324 82.5833 28.211Z" fill="white"/>
<path d="M67.9893 52.3709C68.8678 56.2267 70.0392 59.985 71.5522 63.6456C73.651 68.5752 76.3354 73.2119 79.5567 77.507C79.7032 77.7022 79.8984 77.9463 80.0448 78.1415C82.5828 74.0416 85.5601 70.1858 88.8303 66.6228C92.9301 62.1813 97.5181 58.1791 102.545 54.8601C107.377 51.6876 112.551 49.052 117.969 47.002C117.529 45.0985 117.041 43.195 116.407 41.3403C115.626 38.9487 114.65 36.5571 113.576 34.2632C110.062 36.1667 106.548 37.9238 102.936 39.5832C91.6611 44.8057 79.9472 49.052 67.9893 52.3709Z" fill="white"/>
<path d="M118.799 51.3459C118.115 51.59 117.383 51.8828 116.7 52.1757C111.087 54.5673 105.816 57.6422 100.984 61.3028C96.103 65.1098 91.7591 69.5025 87.9521 74.3833C86.195 76.6773 84.5843 79.0689 83.0713 81.5581C86.2926 85.0234 89.8556 88.1959 93.6138 91.1244C97.1768 93.8577 100.886 96.3957 104.596 98.8849C106.89 96.298 108.939 93.516 110.745 90.5875C112.942 87.0245 114.796 83.0711 116.261 78.8248C117.578 74.9202 118.555 70.6739 119.043 66.1836C119.58 61.3516 119.482 56.3244 118.799 51.3459Z" fill="white"/>
<path d="M69.9905 70.5275C67.7454 66.1347 65.8907 61.498 64.5729 56.7148C58.8135 65.9395 52.4685 74.8226 45.9282 83.4616C46.8068 84.4377 47.6853 85.4627 48.515 86.5365C50.3697 88.8792 52.1268 91.3685 53.6887 93.9553C55.2994 96.6397 56.7148 99.4706 57.935 102.35C60.2778 101.765 62.6693 101.325 65.0609 101.13C66.2323 101.032 67.4037 100.984 68.5751 100.984C69.2584 100.984 69.9417 100.984 70.5762 101.032C71.0643 98.8361 71.65 96.6885 72.3333 94.541C73.7487 90.2459 75.5546 86.0972 77.7022 82.1438C74.7249 78.532 72.1381 74.6761 69.9905 70.5275Z" fill="white"/>
<path d="M69.7468 105.376C69.3563 105.376 69.0146 105.376 68.6242 105.376C66.9159 105.376 65.2564 105.474 63.5481 105.718C62.1815 105.913 60.8637 106.157 59.5459 106.499C59.9364 107.524 60.278 108.549 60.6197 109.574C61.6446 112.746 62.4744 116.016 63.2065 119.287C65.3052 119.14 67.4528 118.896 69.6491 118.554C69.5027 117.969 69.4051 117.432 69.3075 116.846C68.9658 114.357 68.9658 111.868 69.2099 109.33C69.3075 107.963 69.5027 106.694 69.7468 105.376Z" fill="white"/>
<path d="M93.955 96.8349C89.3183 93.4184 84.828 89.8066 80.8257 85.6091C79.996 87.2198 79.215 88.8793 78.4829 90.5387C77.0187 94.1017 75.8473 97.7623 74.9688 101.521C77.458 101.96 79.8495 102.692 82.1923 103.57C85.0232 104.693 87.8052 106.011 90.4409 107.622C91.2706 108.11 92.1003 108.646 92.9301 109.183C92.9789 109.135 93.0765 109.086 93.1253 109.037C96.1514 106.987 98.9823 104.693 101.569 102.106C101.471 102.009 101.325 101.96 101.227 101.862C98.7382 100.3 96.2978 98.592 93.955 96.8349Z" fill="white"/>
<path d="M74.0906 105.816C73.9441 106.645 73.7977 107.426 73.7001 108.256C73.4072 110.794 73.2608 113.332 73.5537 115.87C73.6513 116.456 73.7489 117.041 73.8953 117.627C79.0202 116.358 84.0474 114.406 88.7329 111.77C86.5366 110.452 84.2914 109.232 81.9486 108.207C79.4106 107.182 76.775 106.353 74.0906 105.816Z" fill="white"/>
<path d="M33.7752 92.1006L33.7264 92.1494C33.6288 92.2958 33.5312 92.3934 33.4336 92.5398C33.58 92.3934 33.6776 92.247 33.7752 92.1006Z" fill="white"/>
<path d="M39.5831 84.5353C39.7784 84.2913 39.9248 84.0961 40.12 83.852C38.9974 82.7783 37.8261 81.7533 36.557 80.7771C33.5798 78.532 30.4072 76.6773 26.9907 75.1642C26.0145 74.7738 25.0384 74.3833 24.0134 74.0416C22.2075 77.2141 20.2552 80.2891 18.1076 83.2663C15.6673 86.7317 13.0316 90.0506 10.396 93.3696C11.0305 94.2969 11.7626 95.2731 12.5435 96.2981C15.0816 99.5682 17.9612 102.594 21.1337 105.279C21.3778 105.474 21.573 105.669 21.8171 105.864C26.161 101.667 30.0168 96.9326 33.6774 92.1494C35.7273 89.6114 37.6308 87.0734 39.5831 84.5353Z" fill="white"/>
<path d="M53.689 103.619C51.5414 98.7873 48.857 94.1993 45.6357 90.0018C44.8547 88.9769 44.025 88.0007 43.1465 87.0246C42.7072 87.5614 42.3167 88.0983 41.8774 88.6352C37.2895 94.5898 32.848 100.691 27.6743 106.157C26.8934 106.938 26.1613 107.768 25.3804 108.5C27.4303 109.964 29.6267 111.282 31.823 112.453C33.2384 113.186 34.7027 113.918 36.1669 114.552C36.2157 114.503 36.2645 114.503 36.2645 114.455C37.68 113.137 39.193 111.868 40.7061 110.696C42.8048 109.037 45.0012 107.573 47.3927 106.304C49.4915 105.328 51.5414 104.4 53.689 103.619Z" fill="white"/>
<path d="M52.9564 108.598C49.7351 110.013 46.709 111.721 43.8781 113.869C42.8532 114.65 41.8282 115.48 40.8521 116.358C41.8282 116.7 42.8044 116.993 43.7805 117.237C47.8316 118.359 52.1267 119.043 56.617 119.287C57.3003 119.335 57.9836 119.335 58.7158 119.335C57.7884 115.382 56.7146 111.477 55.348 107.67C54.5183 107.963 53.7373 108.305 52.9564 108.598Z" fill="white"/>
<path d="M17.3756 56.6172C19.1815 56.4708 20.9874 56.3244 22.7445 56.1779C24.1111 56.0803 25.4777 55.9339 26.7956 55.7875C27.0396 54.7625 27.2348 53.6887 27.3813 52.6638C27.7229 49.6865 27.7717 46.758 27.3813 43.7807C27.2836 43.2438 27.2348 42.7069 27.0884 42.1701C24.1111 43.6343 20.9874 44.8057 17.8149 45.7818C12.3972 47.3925 6.7355 48.3199 1.12258 48.3199C0.488081 51.4924 0.0976159 54.7137 0 57.935C4.05106 57.8374 8.10212 57.4957 12.1044 57.1053C13.9103 56.9101 15.6673 56.7636 17.3756 56.6172Z" fill="white"/>
<path d="M15.7162 67.6478C17.8149 67.9406 19.8649 68.2823 21.9148 68.8192C22.6957 67.3061 23.379 65.7931 24.0624 64.2312C24.5992 62.9134 25.0873 61.5956 25.5754 60.2778C24.9409 60.3266 24.3064 60.4242 23.6231 60.473C20.4506 60.7659 17.278 61.0099 14.1055 61.3028C10.933 61.5956 7.7605 61.9373 4.53918 62.1325C3.07494 62.2301 1.6107 62.2789 0.0976562 62.3277C0.195272 64.2312 0.341695 66.1836 0.634543 68.0871C0.732159 68.0871 0.829775 68.0383 0.878582 68.0383C3.80706 67.5502 6.73553 67.2573 9.71282 67.2573C11.7139 67.2573 13.7151 67.4038 15.7162 67.6478Z" fill="white"/>
<path d="M19.6697 72.8214C18.3519 72.5286 16.9852 72.2358 15.6186 72.0405C13.6175 71.7965 11.5676 71.6501 9.56643 71.6501C7.5165 71.6501 5.46656 71.7965 3.41663 72.0405C2.73332 72.1381 2.05001 72.2358 1.3667 72.3822C1.41551 72.5286 1.41551 72.7238 1.46431 72.8703C2.34286 76.9701 3.8071 81.1188 5.75941 85.3163C6.39392 86.6829 7.12604 88.0495 7.90696 89.465C8.83431 88.3424 9.71286 87.171 10.5914 86.0484C13.9103 81.8021 16.9852 77.4094 19.6697 72.8214Z" fill="white"/>
<path d="M37.0451 15.4233C39.6807 17.3756 42.5116 18.9863 45.5376 20.2553C45.9769 20.4505 46.3674 20.597 46.8067 20.7434C46.8067 20.6946 46.8555 20.6946 46.8555 20.6458C49.7351 16.8875 52.2243 12.8365 54.1278 8.44378C55.2504 5.71053 56.129 2.92848 56.5682 0C56.4706 0 56.373 0 56.2754 0C51.8339 0.292848 47.4412 1.02497 43.2925 2.24517C39.2902 3.41656 35.3368 5.02722 31.481 7.12596C31.0905 7.32119 30.7 7.56523 30.3096 7.76046C30.8465 8.68781 31.4322 9.61516 32.1155 10.4937C33.5309 12.3972 35.1904 14.0079 37.0451 15.4233Z" fill="white"/>
<path d="M24.111 25.3801C25.5752 27.186 26.893 29.0895 27.9668 31.1395C28.6989 32.6037 29.3822 34.1167 29.9679 35.6298C32.1155 34.3608 34.2142 32.9454 36.2153 31.4323C38.9486 29.2848 41.4866 26.8444 43.8294 24.2575C43.4877 24.1111 43.1461 23.9647 42.8532 23.8183C38.7533 22.0124 34.8975 19.6208 31.6274 16.4971C30.0167 14.9352 28.5525 13.2269 27.3323 11.3234C27.0883 10.933 26.8442 10.5425 26.6002 10.1032C24.6967 11.4211 22.7931 12.8365 20.9384 14.4471C19.7183 15.4721 18.5469 16.5947 17.3267 17.8149C19.8159 20.1577 22.0122 22.7445 24.111 25.3801Z" fill="white"/>
<path d="M22.5492 39.4368C23.7206 38.9487 24.892 38.363 26.0634 37.7773C25.8194 37.0452 25.5753 36.3131 25.2825 35.581C24.2087 33.1406 22.8909 30.8466 21.2802 28.6991C19.1815 26.0146 16.9363 23.379 14.3983 21.085C13.715 21.866 13.0317 22.7445 12.2996 23.7207C9.76156 27.0396 7.5652 30.7002 5.7105 34.6048C4.29507 37.5821 3.17249 40.7058 2.29395 43.8783C4.19745 43.8295 6.10096 43.6831 7.95567 43.4391C12.9341 42.7558 17.8637 41.3891 22.5492 39.4368Z" fill="white"/>
</svg>
