<svg width="121" height="25" viewBox="0 0 121 25" fill="none" xmlns="http://www.w3.org/2000/svg">
<path d="M8.528 24H0.368V1.024H8.528C15.824 1.024 20.24 5.696 20.24 12.384C20.24 19.072 15.664 24 8.528 24ZM5.232 5.216V19.808H8.272C12.848 19.808 15.248 17.152 15.248 12.384C15.248 7.808 12.848 5.216 8.272 5.216H5.232ZM26.786 2.944C26.786 4.448 25.57 5.568 23.81 5.568C22.082 5.568 20.866 4.448 20.866 2.944C20.866 1.376 22.082 0.255999 23.81 0.255999C25.57 0.255999 26.786 1.376 26.786 2.944ZM26.082 24H21.634V6.912H26.082V24ZM42.8722 18.528C42.8722 22.112 40.1523 24.32 35.2882 24.32C30.4242 24.32 27.7042 21.984 27.3522 18.176H31.6082C31.6402 19.936 33.1442 21.056 35.3523 21.056C37.0802 21.056 38.3923 20.512 38.3923 19.296C38.3923 18.208 37.6882 17.76 36.0562 17.44L32.9842 16.864C29.9122 16.32 28.0562 14.624 28.0562 11.968C28.0562 8.8 30.7762 6.592 35.0322 6.592C39.3202 6.592 42.2642 8.864 42.5842 12.544H38.3282C38.1683 10.88 36.9202 9.856 35.0322 9.856C33.4002 9.856 32.3122 10.464 32.3122 11.552C32.3122 12.576 33.0162 12.992 34.5522 13.28L37.8482 13.888C41.1762 14.528 42.8722 16.064 42.8722 18.528ZM51.509 24.32C46.581 24.32 43.189 20.672 43.189 15.456C43.189 10.336 46.709 6.592 51.509 6.592C55.957 6.592 59.253 9.6 59.797 14.208H55.125C54.901 11.936 53.525 10.528 51.509 10.528C49.205 10.528 47.733 12.416 47.733 15.456C47.733 18.528 49.173 20.384 51.509 20.384C53.557 20.384 54.869 19.04 55.125 16.704H59.797C59.285 21.408 56.085 24.32 51.509 24.32ZM68.5422 24.32C63.5822 24.32 59.8702 20.416 59.8702 15.456C59.8702 10.464 63.5822 6.592 68.5422 6.592C73.5022 6.592 77.2142 10.464 77.2142 15.456C77.2142 20.416 73.5022 24.32 68.5422 24.32ZM68.5422 20.384C70.7502 20.384 72.6382 18.624 72.6382 15.456C72.6382 12.288 70.7502 10.56 68.5422 10.56C66.3342 10.56 64.4462 12.288 64.4462 15.456C64.4462 18.624 66.3342 20.384 68.5422 20.384ZM93.251 6.912L86.979 24H82.115L75.811 6.912H80.611L84.675 18.944L88.771 6.912H93.251ZM100.433 24.288C95.313 24.288 91.889 20.736 91.889 15.392C91.889 10.304 95.441 6.592 100.369 6.592C105.777 6.592 109.361 10.976 108.561 16.544H96.433C96.721 19.328 98.065 20.864 100.337 20.864C102.289 20.864 103.601 19.904 104.113 18.208H108.529C107.569 22.08 104.593 24.288 100.433 24.288ZM100.273 9.856C98.193 9.856 96.881 11.2 96.497 13.728H103.857C103.729 11.36 102.385 9.856 100.273 9.856ZM114.388 15.712V24H109.94V6.912H114.036V10.208C115.284 8.032 117.94 6.72 120.692 6.72V11.328C116.916 11.04 114.388 11.936 114.388 15.712Z" fill="#1A1A1A"/>
</svg>
