<svg width="30" height="28" viewBox="0 0 30 28" fill="none" xmlns="http://www.w3.org/2000/svg">
<g filter="url(#filter0_d_146_3326)">
<path d="M24 4.125H6C5.50272 4.125 5.02581 4.32254 4.67417 4.67417C4.32254 5.02581 4.125 5.50272 4.125 6V18C4.125 18.4973 4.32254 18.9742 4.67417 19.3258C5.02581 19.6775 5.50272 19.875 6 19.875H24C24.4973 19.875 24.9742 19.6775 25.3258 19.3258C25.6775 18.9742 25.875 18.4973 25.875 18V6C25.875 5.50272 25.6775 5.02581 25.3258 4.67417C24.9742 4.32254 24.4973 4.125 24 4.125ZM23.625 6.375V8.25H6.375V6.375H23.625ZM6.375 17.625V10.5H23.625V17.625H6.375ZM22.5 15.375C22.5 15.6734 22.3815 15.9595 22.1705 16.1705C21.9595 16.3815 21.6734 16.5 21.375 16.5H18.375C18.0766 16.5 17.7905 16.3815 17.5795 16.1705C17.3685 15.9595 17.25 15.6734 17.25 15.375C17.25 15.0766 17.3685 14.7905 17.5795 14.5795C17.7905 14.3685 18.0766 14.25 18.375 14.25H21.375C21.6734 14.25 21.9595 14.3685 22.1705 14.5795C22.3815 14.7905 22.5 15.0766 22.5 15.375ZM16.125 15.375C16.125 15.6734 16.0065 15.9595 15.7955 16.1705C15.5845 16.3815 15.2984 16.5 15 16.5H13.875C13.5766 16.5 13.2905 16.3815 13.0795 16.1705C12.8685 15.9595 12.75 15.6734 12.75 15.375C12.75 15.0766 12.8685 14.7905 13.0795 14.5795C13.2905 14.3685 13.5766 14.25 13.875 14.25H15C15.2984 14.25 15.5845 14.3685 15.7955 14.5795C16.0065 14.7905 16.125 15.0766 16.125 15.375Z" fill="white"/>
</g>
<defs>
<filter id="filter0_d_146_3326" x="-1" y="0" width="32" height="32" filterUnits="userSpaceOnUse" color-interpolation-filters="sRGB">
<feFlood flood-opacity="0" result="BackgroundImageFix"/>
<feColorMatrix in="SourceAlpha" type="matrix" values="0 0 0 0 0 0 0 0 0 0 0 0 0 0 0 0 0 0 127 0" result="hardAlpha"/>
<feOffset dy="4"/>
<feGaussianBlur stdDeviation="2"/>
<feComposite in2="hardAlpha" operator="out"/>
<feColorMatrix type="matrix" values="0 0 0 0 0 0 0 0 0 0 0 0 0 0 0 0 0 0 0.25 0"/>
<feBlend mode="normal" in2="BackgroundImageFix" result="effect1_dropShadow_146_3326"/>
<feBlend mode="normal" in="SourceGraphic" in2="effect1_dropShadow_146_3326" result="shape"/>
</filter>
</defs>
</svg>
